<?xml version="1.0" encoding="utf-8"?>
<!-- Generator: Adobe Illustrator 25.0.0, SVG Export Plug-In . SVG Version: 6.00 Build 0)  -->
<svg version="1.1" id="Layer_1" xmlns="http://www.w3.org/2000/svg" xmlns:xlink="http://www.w3.org/1999/xlink" x="0px" y="0px"
	 viewBox="0 0 80 80" style="enable-background:new 0 0 80 80;" xml:space="preserve">
<g>
	<polygon points="3.3,3.3 8.3,3.3 8.3,0 0,0 0,8.3 3.3,8.3 	"/>
	<polygon points="71.7,3.3 76.7,3.3 76.7,8.3 80,8.3 80,0 71.7,0 	"/>
	<rect x="13.3" width="6.7" height="3.3"/>
	<rect x="25.1" width="6.7" height="3.3"/>
	<rect x="36.7" width="6.7" height="3.3"/>
	<rect x="48.3" width="6.7" height="3.3"/>
	<rect x="60" width="6.7" height="3.3"/>
	<rect x="13.3" y="76.7" width="6.7" height="3.3"/>
	<rect x="25.1" y="76.7" width="6.7" height="3.3"/>
	<rect x="36.7" y="76.7" width="6.7" height="3.3"/>
	<rect x="48.3" y="76.7" width="6.7" height="3.3"/>
	<rect x="60" y="76.7" width="6.7" height="3.3"/>
	<polygon points="76.7,76.7 71.7,76.7 71.7,80 80,80 80,71.7 76.7,71.7 	"/>
	<rect x="76.7" y="13.3" width="3.3" height="6.7"/>
	<rect x="76.7" y="25.1" width="3.3" height="6.7"/>
	<rect x="76.7" y="36.7" width="3.3" height="6.7"/>
	<rect x="76.7" y="48.3" width="3.3" height="6.7"/>
	<rect x="76.7" y="60" width="3.3" height="6.7"/>
	<polygon points="8.3,76.7 3.3,76.7 3.3,71.7 0,71.7 0,80 8.3,80 	"/>
	<rect y="13.3" width="3.3" height="6.7"/>
	<rect y="25.1" width="3.3" height="6.7"/>
	<rect y="36.7" width="3.3" height="6.7"/>
	<rect y="48.3" width="3.3" height="6.7"/>
	<rect y="60" width="3.3" height="6.7"/>
	<path d="M54,65.6c-0.2,0.2-0.5,0.4-0.9,0.4c-0.7,0-1.2-0.6-1.2-1.2v-7.5l-7.6,0c-0.7,0-1.3-0.5-1.2-1.2c0-0.7,0.6-1.2,1.2-1.2h7.7
		l0-7.5c0-0.7,0.6-1.2,1.2-1.2c0.7,0,1.2,0.6,1.2,1.2l0,7.5h7.4c0.7,0,1.2,0.6,1.2,1.2c0,0.7-0.6,1.2-1.2,1.2h-7.4l0,7.5
		C54.4,65.1,54.2,65.4,54,65.6L54,65.6z"/>
	<g>
		<path d="M22,31c-0.6,0-1,0.4-1,1v2c0,0.6,0.4,1,1,1h4c0.6,0,1-0.4,1-1v-2c0-0.6-0.4-1-1-1H22z"/>
		<path d="M38,55.9c0-0.3,0-0.6,0.1-0.9H21c-1.1,0-2-0.9-2-2V31c0-1.1,0.9-2,2-2l3,0c0,0,0,0,0,0h2c0,0,0,0,0.1,0l4.2,0
			c0.3,0,1.9-0.3,3.2-1.6l2.1-2.1l0.1-0.1c0-0.1,0.3-0.2,0.4-0.2h8c0.2,0,0.4,0.1,0.4,0.1l0.1,0.2l2.1,2.1c1.3,1.3,2.9,1.5,3.2,1.6
			l9.2,0c1.1,0,2,0.9,2,2v18.8h0.8c0.4,0,0.8,0,1.2,0.1V31c0-2.2-1.8-4-4-4h-9c0,0-1.1-0.1-2-1l-2-2c0,0-0.7-1-2-1h-8
			c-1.2,0-2,1-2,1l-2,2c-0.9,0.9-2,1-2,1h-2c0-1.1-0.9-2-2-2h-2c-1.1,0-2,0.9-2,2h-1c-2.2,0-4,1.8-4,4v22c0,2.2,1.8,4,4,4h17.1
			C38,56.6,38,56.3,38,55.9z"/>
		<path d="M40,31c-6.1,0-11,4.9-11,11c0,5.7,4.3,10.3,9.8,10.9c0.4-0.8,1-1.4,1.7-2c-0.2,0-0.4,0-0.5,0c-5,0-9-4-9-9s4-9,9-9
			s9,4,9,9c0,0.2,0,0.4,0,0.6c0.6-0.5,1.3-0.9,2-1.2C50.7,35.6,45.9,31,40,31z"/>
		<path d="M40,37c-2.8,0-5,2.2-5,5s2.2,5,5,5s5-2.2,5-5S42.8,37,40,37z M40,45c-1.7,0-3-1.3-3-3c0-1.7,1.3-3,3-3c1.7,0,3,1.3,3,3
			C43,43.7,41.7,45,40,45z"/>
	</g>
</g>
</svg>
