<svg width="32" height="32" viewBox="0 0 32 32" fill="none" xmlns="http://www.w3.org/2000/svg">
<path d="M19.6866 0.646447C19.5928 0.552678 19.4656 0.5 19.333 0.5H7.66634C6.64968 0.5 5.67465 0.903868 4.95577 1.62276C4.23688 2.34165 3.83301 3.31667 3.83301 4.33333V27.6667C3.83301 28.6833 4.23688 29.6584 4.95576 30.3772C5.67465 31.0961 6.64968 31.5 7.66634 31.5H24.333C25.3497 31.5 26.3247 31.0961 27.0436 30.3772C27.7625 29.6584 28.1663 28.6833 28.1663 27.6667V9.33333C28.1663 9.20072 28.1137 9.07355 28.0199 8.97978L19.6866 0.646447Z" fill="#E8F6F5" stroke="#3596B3" stroke-linecap="round" stroke-linejoin="round"/>
<rect x="8" y="19" width="16" height="2" rx="1" fill="#3596B3"/>
<rect x="8" y="15" width="11" height="2" rx="1" fill="#3596B3"/>
<rect x="8" y="5" width="5" height="5" rx="1" fill="#3596B3"/>
<rect x="8" y="23" width="16" height="2" rx="1" fill="#3596B3"/>
<mask id="path-6-inside-1_895_187" fill="white">
<path d="M19 0V7.70755C19 8.18294 19.1854 8.63885 19.5153 8.975C19.8452 9.31115 20.2927 9.5 20.7593 9.5H28.5"/>
</mask>
<path d="M19 0V7.70755C19 8.18294 19.1854 8.63885 19.5153 8.975C19.8452 9.31115 20.2927 9.5 20.7593 9.5H28.5" fill="white"/>
<path d="M19.3536 -0.353553C19.1583 -0.548816 18.8417 -0.548816 18.6464 -0.353553C18.4512 -0.158291 18.4512 0.158291 18.6464 0.353553L19.3536 -0.353553ZM28.1464 9.85355C28.3417 10.0488 28.6583 10.0488 28.8536 9.85355C29.0488 9.65829 29.0488 9.34171 28.8536 9.14645L28.1464 9.85355ZM28.8536 9.14645L19.3536 -0.353553L18.6464 0.353553L28.1464 9.85355L28.8536 9.14645ZM20 0C20 -0.552285 19.5523 -1 19 -1C18.4477 -1 18 -0.552285 18 0H20ZM28.5 10.5C29.0523 10.5 29.5 10.0523 29.5 9.5C29.5 8.94771 29.0523 8.5 28.5 8.5V10.5ZM18 0V7.70755H20V0H18ZM18 7.70755C18 8.44218 18.2863 9.15041 18.8016 9.67547L20.229 8.27453C20.0844 8.12729 20 7.92369 20 7.70755H18ZM18.8016 9.67547C19.3176 10.2012 20.0214 10.5 20.7593 10.5V8.5C20.564 8.5 20.3729 8.42114 20.229 8.27453L18.8016 9.67547ZM20.7593 10.5H28.5V8.5H20.7593V10.5Z" fill="#3596B3" mask="url(#path-6-inside-1_895_187)"/>
</svg>
