<?xml version="1.0" encoding="utf-8"?>
<!-- Generator: Adobe Illustrator 25.4.1, SVG Export Plug-In . SVG Version: 6.00 Build 0)  -->
<svg version="1.1" id="Layer_1" xmlns="http://www.w3.org/2000/svg" xmlns:xlink="http://www.w3.org/1999/xlink" x="0px" y="0px"
	 viewBox="0 0 12 12" style="enable-background:new 0 0 12 12;" xml:space="preserve">
<style type="text/css">
	.st0{fill-rule:evenodd;clip-rule:evenodd;fill:#152935;}
	.st1{fill-rule:evenodd;clip-rule:evenodd;fill:#949FB1;}
</style>
<path class="st0" d="M8.3,7.3c0.4,0,0.7,0.2,0.9,0.5C9.4,8.3,9.4,8.7,9.1,9l-2.3,2.6C6.5,11.9,6.3,12,6,12s-0.5-0.1-0.7-0.3L2.9,9
	C2.6,8.7,2.6,8.3,2.8,7.9C3,7.6,3.3,7.4,3.7,7.4L8.3,7.3L8.3,7.3z"/>
<path class="st1" d="M6,0c0.2,0,0.5,0.1,0.7,0.3l0.1,0.1L9.1,3c0.3,0.3,0.3,0.8,0.1,1.1C9.1,4.4,8.8,4.6,8.4,4.7H8.3H3.7
	C3.3,4.7,3,4.5,2.8,4.2C2.6,3.8,2.6,3.4,2.9,3l0,0l2.3-2.6C5.5,0.1,5.7,0,6,0z"/>
</svg>
