<svg width="125" height="20" viewBox="0 0 125 20" fill="none" xmlns="http://www.w3.org/2000/svg">
<path d="M0.213091 7.80425C0.952325 4.65729 2.89424 2.16107 6.15192 0.778116C11.1061 -1.32522 16.9397 0.988174 19.1114 5.87946C19.1927 6.05742 19.1904 6.12404 18.972 6.17062C18.4557 6.27767 17.9543 6.43108 17.4416 6.55075C16.1217 6.87154 14.9685 6.47271 13.929 5.68592C13.1819 5.11783 12.4155 4.62412 11.5034 4.36712C8.65121 3.56707 5.56687 5.11867 4.52408 7.88812C3.67842 10.1433 4.23892 12.5935 5.98221 14.2346C8.74662 16.8327 13.2825 16.0864 15.0791 12.7387C15.1996 12.5095 15.2915 12.2667 15.3955 12.0327C15.961 10.7558 16.9482 9.93975 18.267 9.53137C18.7431 9.38542 19.2341 9.29 19.718 9.16096C19.903 9.11325 19.9688 9.14054 19.9826 9.34117C20.08 11.0873 19.7715 12.7609 19.0038 14.335C17.9986 16.3845 16.4813 17.9408 14.4289 18.9448C12.1221 20.0733 9.71308 20.3102 7.23742 19.59C4.50596 18.7941 2.46752 17.1303 1.13774 14.6282C0.0383121 12.5719 -0.251706 10.3729 0.213091 7.80425Z" fill="white"/>
<path d="M9.94245 14.6889C8.07578 14.6181 6.70078 13.7514 5.73412 12.2139C5.67162 12.1139 5.65078 12.0473 5.77578 11.9556C6.55912 11.3806 7.41745 11.0181 8.40912 10.9514C9.33828 10.8931 10.2258 11.0848 11.1216 11.2764C11.8133 11.4223 12.4966 11.5806 13.2091 11.6014C13.5508 11.6139 13.8924 11.5889 14.2258 11.5264C14.2883 11.5139 14.3674 11.4806 14.4174 11.5348C14.4591 11.5806 14.4091 11.6431 14.3883 11.6931C13.6508 13.2764 12.4549 14.3098 10.6716 14.6389C10.4299 14.6764 10.1883 14.6931 9.94245 14.6889Z" fill="#6FCF62"/>
<path d="M22.5008 18.8389V4.67642C22.5008 4.21617 22.8739 3.84308 23.3342 3.84308H25.7175V9.95142H31.6675V4.67642C31.6675 4.21617 32.0406 3.84308 32.5008 3.84308H34.8717V5.434V18.0056C34.8717 18.4658 34.4985 18.8389 34.0383 18.8389H31.6675V12.9389H25.7175V18.0056C25.7175 18.4658 25.3444 18.8389 24.8842 18.8389H22.5008Z" fill="white"/>
<path d="M38.7508 3.84308C38.2906 3.84308 37.9175 4.21617 37.9175 4.67642V18.8389H48.63V15.8389H41.13V12.5556H46.4842V9.57642H41.1342V6.83475H46.9675C47.8879 6.83475 48.6342 6.08833 48.6342 5.16783C48.6342 5.10967 48.6342 5.0535 48.6342 5V3.84308H38.7508Z" fill="white"/>
<path d="M64.3592 3.84308C63.9467 3.84308 63.5633 4.04725 63.33 4.38475L58.8133 10.9556L54.305 4.38475C54.0717 4.04308 53.6842 3.84308 53.2758 3.84308H51.2508V18.8389H54.4342V9.46808L58.8133 15.8889L63.2133 9.46808V18.8389H65.1592C65.8508 18.8389 66.4092 18.2806 66.4092 17.5889V3.84308H64.3592Z" fill="white"/>
<path d="M66.4092 17.5889C66.4092 18.2806 65.8508 18.8389 65.1592 18.8389H66.4092V17.5889Z" fill="#165B64"/>
<path d="M71.4875 15.4828C70.8421 15.2426 70.1138 15.5357 69.8467 16.1706L69.1675 17.7847C70.6883 18.4139 72.58 19.1139 74.2467 19.1139C76.9383 19.1139 80.08 17.7972 80.08 14.6805C80.08 9.45135 72.4758 10.7597 72.4758 8.03885C72.4758 6.76385 74.1717 6.58469 75.1133 6.58469C75.8342 6.58469 76.7342 6.83052 77.555 7.11385C78.2133 7.34302 78.9467 7.03885 79.205 6.38885L79.8258 4.81802C78.4633 4.16802 76.6217 3.60553 75.1008 3.60553C72.3675 3.60553 69.255 4.85135 69.255 8.03052C69.255 13.293 76.88 12.0347 76.88 14.6722C76.88 15.8139 75.1092 16.1472 74.2425 16.1472C73.4475 16.1415 72.4096 15.8258 71.4875 15.4828Z" fill="white"/>
<path fill-rule="evenodd" clip-rule="evenodd" d="M98.005 11.3264C97.9883 6.94309 94.3841 3.48474 90.0175 3.5014C85.6591 3.51807 82.0716 7.01392 82.0883 11.3848C82.105 15.7764 85.7216 19.1848 90.0758 19.1681C94.43 19.1514 98.0216 15.7181 98.005 11.3264ZM90.0591 16.1973C87.382 16.2033 85.3008 14.0167 85.2925 11.3723C85.2841 8.71392 87.3258 6.50142 90.03 6.49309C92.73 6.48475 94.7925 8.68059 94.8008 11.3389C94.8091 13.9931 92.7425 16.1889 90.0633 16.1973C90.0619 16.1973 90.0605 16.1973 90.0591 16.1973Z" fill="white"/>
<path d="M101.601 3.84308C101.14 3.84308 100.768 4.21617 100.768 4.67642V18.8389H103.951V12.4806H108.613V9.50142H103.951V6.80142H107.03H108.75H109.168C110.088 6.80142 110.834 6.05517 110.834 5.13471C110.834 4.61667 110.834 4.11137 110.834 3.84308H101.601Z" fill="white"/>
<path d="M112.884 3.84308C112.424 3.84308 112.051 4.21617 112.051 4.67642V6.83475H116.501V18.8431H119.718V6.83475H122.468C123.401 6.83475 124.167 6.06917 124.167 5.13612C124.167 5.08908 124.167 5.04358 124.167 5L124.168 3.84308H112.884Z" fill="white"/>
</svg>
