<svg width="125" height="20" viewBox="0 0 125 20" fill="none" xmlns="http://www.w3.org/2000/svg">
<g id="Chemsoft logo">
<path id="Path" d="M0.213091 7.80425C0.952325 4.65729 2.89424 2.16107 6.15192 0.778116C11.1061 -1.32522 16.9397 0.988174 19.1114 5.87946C19.1927 6.05742 19.1904 6.12404 18.972 6.17062C18.4557 6.27767 17.9543 6.43108 17.4416 6.55075C16.1217 6.87154 14.9685 6.47271 13.929 5.68592C13.1819 5.11783 12.4155 4.62412 11.5034 4.36712C8.65121 3.56707 5.56687 5.11867 4.52408 7.88812C3.67842 10.1433 4.23892 12.5935 5.98221 14.2346C8.74662 16.8327 13.2825 16.0864 15.0791 12.7387C15.1996 12.5095 15.2915 12.2667 15.3955 12.0327C15.961 10.7558 16.9482 9.93975 18.267 9.53137C18.7431 9.38542 19.2341 9.29 19.718 9.16096C19.903 9.11325 19.9688 9.14054 19.9826 9.34117C20.08 11.0873 19.7715 12.7609 19.0038 14.335C17.9986 16.3845 16.4813 17.9408 14.4289 18.9448C12.1221 20.0733 9.71308 20.3102 7.23742 19.59C4.50596 18.7941 2.46752 17.1303 1.13774 14.6282C0.0383121 12.5719 -0.251706 10.3729 0.213091 7.80425Z" fill="#165B64"/>
<path id="Path_2" d="M9.94248 14.6891C8.07581 14.6182 6.70081 13.7516 5.73415 12.2141C5.67165 12.1141 5.65081 12.0474 5.77581 11.9557C6.55915 11.3807 7.41748 11.0182 8.40915 10.9516C9.33831 10.8932 10.2258 11.0849 11.1216 11.2766C11.8133 11.4224 12.4966 11.5807 13.2091 11.6016C13.5508 11.6141 13.8925 11.5891 14.2258 11.5266C14.2883 11.5141 14.3675 11.4807 14.4175 11.5349C14.4591 11.5807 14.4091 11.6432 14.3883 11.6932C13.6508 13.2766 12.455 14.3099 10.6716 14.6391C10.43 14.6766 10.1883 14.6932 9.94248 14.6891Z" fill="#6FCF62"/>
<path id="Path_3" d="M22.5009 18.8391V4.6766C22.5009 4.21635 22.8739 3.84326 23.3342 3.84326H25.7175V9.9516H31.6675V4.6766C31.6675 4.21635 32.0406 3.84326 32.5009 3.84326H34.8717V5.43419V18.0058C34.8717 18.466 34.4986 18.8391 34.0384 18.8391H31.6675V12.9391H25.7175V18.0058C25.7175 18.466 25.3444 18.8391 24.8842 18.8391H22.5009Z" fill="#165B64"/>
<path id="Path_4" d="M38.7508 3.84326C38.2906 3.84326 37.9175 4.21635 37.9175 4.6766V18.8391H48.63V15.8391H41.13V12.5558H46.4841V9.5766H41.1341V6.83493H46.9675C47.8879 6.83493 48.6341 6.08852 48.6341 5.16802C48.6341 5.10985 48.6341 5.05368 48.6341 5.00018V3.84326H38.7508Z" fill="#165B64"/>
<path id="Path_5" d="M64.3592 3.84326C63.9467 3.84326 63.5634 4.04743 63.33 4.38493L58.8134 10.9558L54.305 4.38493C54.0717 4.04326 53.6842 3.84326 53.2759 3.84326H51.2509V18.8391H54.4342V9.46827L58.8134 15.8891L63.2134 9.46827V18.8391H65.1592C65.8509 18.8391 66.4092 18.2808 66.4092 17.5891V3.84326H64.3592Z" fill="#165B64"/>
<path id="Path_6" d="M66.4092 17.5889C66.4092 18.2805 65.8508 18.8389 65.1592 18.8389H66.4092V17.5889Z" fill="#165B64"/>
<path id="Path_7" d="M71.4875 15.4828C70.8421 15.2426 70.1137 15.5357 69.8466 16.1705L69.1675 17.7846C70.6883 18.4138 72.58 19.1138 74.2466 19.1138C76.9383 19.1138 80.08 17.7971 80.08 14.6805C80.08 9.45129 72.4758 10.7596 72.4758 8.03879C72.4758 6.76379 74.1716 6.58463 75.1133 6.58463C75.8341 6.58463 76.7341 6.83046 77.555 7.11379C78.2133 7.34296 78.9466 7.03879 79.205 6.38879L79.8258 4.81796C78.4633 4.16796 76.6216 3.60547 75.1008 3.60547C72.3675 3.60547 69.255 4.85129 69.255 8.03046C69.255 13.293 76.88 12.0346 76.88 14.6721C76.88 15.8138 75.1091 16.1471 74.2425 16.1471C73.4475 16.1414 72.4096 15.8257 71.4875 15.4828Z" fill="#165B64"/>
<path id="Shape" fill-rule="evenodd" clip-rule="evenodd" d="M98.005 11.3265C97.9883 6.94321 94.3841 3.48486 90.0175 3.50152C85.6591 3.51819 82.0716 7.01404 82.0883 11.3849C82.105 15.7765 85.7216 19.1849 90.0758 19.1682C94.43 19.1515 98.0216 15.7182 98.005 11.3265ZM90.0591 16.1974C87.382 16.2034 85.3008 14.0168 85.2925 11.3724C85.2841 8.71404 87.3258 6.50154 90.03 6.49321C92.73 6.48487 94.7925 8.68071 94.8008 11.339C94.8091 13.9932 92.7425 16.189 90.0633 16.1974C90.0619 16.1974 90.0605 16.1974 90.0591 16.1974Z" fill="#165B64"/>
<path id="Path_8" d="M101.601 3.84326C101.14 3.84326 100.767 4.21635 100.767 4.6766V18.8391H103.951V12.4808H108.613V9.5016H103.951V6.8016H107.03H108.75H109.167C110.088 6.8016 110.834 6.05535 110.834 5.13489C110.834 4.61685 110.834 4.11156 110.834 3.84326H101.601Z" fill="#165B64"/>
<path id="Path_9" d="M112.884 3.84326C112.424 3.84326 112.051 4.21635 112.051 4.6766V6.83493H116.501V18.8433H119.717V6.83493H122.468C123.401 6.83493 124.167 6.06935 124.167 5.13631C124.167 5.08927 124.167 5.04377 124.167 5.00018L124.167 3.84326H112.884Z" fill="#165B64"/>
</g>
</svg>
