<?xml version="1.0" encoding="utf-8"?>
<!-- Generator: Adobe Illustrator 25.1.0, SVG Export Plug-In . SVG Version: 6.00 Build 0)  -->
<svg version="1.1" id="Layer_1" xmlns="http://www.w3.org/2000/svg" xmlns:xlink="http://www.w3.org/1999/xlink" x="0px" y="0px"
	 viewBox="0 0 323 52" style="enable-background:new 0 0 323 52;" xml:space="preserve">
<style type="text/css">
	.st0{fill:#165B64;}
	.st1{fill:#6FCF62;}
</style>
<g id="Top-and-Sidebar">
	<g id="Side-Top-Bar-2" transform="translate(-20.000000, -20.000000)">
		<g id="Chemsoft-logo" transform="translate(20.000000, 20.000000)">
			<path id="Path" class="st0" d="M0.2,20.3C2.1,12.1,7.2,5.6,15.7,2c12.9-5.5,28,0.5,33.7,13.3c0.2,0.5,0.2,0.6-0.4,0.8
				c-1.3,0.3-2.6,0.7-4,1c-3.4,0.8-6.4-0.2-9.1-2.2c-1.9-1.5-3.9-2.8-6.3-3.4c-7.4-2.1-15.4,2-18.1,9.2c-2.2,5.9-0.7,12.2,3.8,16.5
				c7.2,6.8,19,4.8,23.7-3.9c0.3-0.6,0.6-1.2,0.8-1.8c1.5-3.3,4-5.4,7.5-6.5c1.2-0.4,2.5-0.6,3.8-1c0.5-0.1,0.7-0.1,0.7,0.5
				c0.3,4.5-0.5,8.9-2.5,13c-2.6,5.3-6.6,9.4-11.9,12c-6,2.9-12.3,3.5-18.7,1.7C11.4,48.9,6.1,44.5,2.6,38C-0.2,32.7-1,27,0.2,20.3z
				"/>
			<path id="Path_1_" class="st1" d="M25.5,38.2c-4.9-0.2-8.4-2.4-10.9-6.4c-0.2-0.3-0.2-0.4,0.1-0.7c2-1.5,4.3-2.4,6.8-2.6
				c2.4-0.2,4.7,0.3,7.1,0.8c1.8,0.4,3.6,0.8,5.4,0.8c0.9,0,1.8,0,2.6-0.2c0.2,0,0.4-0.1,0.5,0c0.1,0.1,0,0.3-0.1,0.4
				c-1.9,4.1-5,6.8-9.7,7.7C26.8,38.2,26.2,38.2,25.5,38.2z"/>
			<path id="Path_2_" class="st0" d="M58.2,49V12.2c0-1.2,1-2.2,2.2-2.2h6.2v15.9H82V12.2c0-1.2,1-2.2,2.2-2.2h6.2v4.1v32.7
				c0,1.2-1,2.2-2.2,2.2H82V33.6H66.5v13.2c0,1.2-1,2.2-2.2,2.2H58.2z"/>
			<path id="Path_3_" class="st0" d="M100.4,10c-1.2,0-2.2,1-2.2,2.2V49h27.9v-7.8h-19.5v-8.5h13.9v-7.7h-13.9v-7.1h15.2
				c2.4,0,4.3-1.9,4.3-4.3c0-0.2,0-0.3,0-0.4v-3H100.4z"/>
			<path id="Path_4_" class="st0" d="M167,10c-1.1,0-2.1,0.5-2.7,1.4l-11.7,17.1l-11.7-17.1c-0.6-0.9-1.6-1.4-2.7-1.4h-5.3v39h8.3
				V24.6l11.4,16.7L164,24.6V49h5.1c1.8,0,3.3-1.5,3.3-3.3V10H167z"/>
			<path id="Path_5_" class="st0" d="M172.3,45.7c0,1.8-1.5,3.3-3.3,3.3h3.3V45.7z"/>
			<path id="Path_6_" class="st0" d="M185.5,40.3c-1.7-0.6-3.6,0.1-4.3,1.8l-1.8,4.2c4,1.6,8.9,3.5,13.2,3.5c7,0,15.2-3.4,15.2-11.5
				c0-13.6-19.8-10.2-19.8-17.3c0-3.3,4.4-3.8,6.9-3.8c1.9,0,4.2,0.6,6.3,1.4c1.7,0.6,3.6-0.2,4.3-1.9l1.6-4.1
				c-3.5-1.7-8.3-3.2-12.3-3.2c-7.1,0-15.2,3.2-15.2,11.5c0,13.7,19.8,10.4,19.8,17.3c0,3-4.6,3.8-6.9,3.8
				C190.6,42,187.9,41.1,185.5,40.3z"/>
			<path id="Shape" class="st0" d="M233.8,42.1c-7,0-12.4-5.7-12.4-12.5c0-6.9,5.3-12.7,12.3-12.7c7,0,12.4,5.7,12.4,12.6
				C246.2,36.4,240.8,42.1,233.8,42.1z M254.5,29.4c0-11.4-9.4-20.4-20.8-20.3c-11.3,0-20.7,9.1-20.6,20.5
				c0,11.4,9.4,20.3,20.8,20.2C245.2,49.8,254.5,40.9,254.5,29.4z M233.9,49.8l0-7.7L233.9,49.8z"/>
			<path id="Path_7_" class="st0" d="M263.8,10c-1.2,0-2.2,1-2.2,2.2V49h8.3V32.4h12.1v-7.7h-12.1v-7h8h4.5h1.1
				c2.4,0,4.3-1.9,4.3-4.3c0-1.3,0-2.7,0-3.4H263.8z"/>
			<path id="Path_8_" class="st0" d="M293.2,10c-1.2,0-2.2,1-2.2,2.2v5.6h11.6V49h8.4V17.8h7.2c2.4,0,4.4-2,4.4-4.4
				c0-0.1,0-0.2,0-0.4l0-3H293.2z"/>
		</g>
	</g>
</g>
</svg>
