<svg width="267" height="120" viewBox="0 0 267 120" fill="none" xmlns="http://www.w3.org/2000/svg">
<path d="M115.765 107.764C104.521 107.764 95.913 103.679 89.9399 95.5103C84.0547 87.3412 81.1121 75.5269 81.1121 60.0671C81.1121 44.6952 84.0547 32.9248 89.9399 24.7557C95.913 16.5866 104.521 12.5021 115.765 12.5021C127.008 12.5021 135.572 16.5866 141.458 24.7557C147.431 32.9248 150.417 44.6952 150.417 60.0671C150.417 75.5269 147.431 87.3412 141.458 95.5103C135.572 103.679 127.008 107.764 115.765 107.764ZM115.765 92.0846C120.859 92.0846 124.549 89.5372 126.832 84.4425C129.204 79.3479 130.39 71.2227 130.39 60.0671C130.39 48.8237 129.204 40.6985 126.832 35.6917C124.549 30.6849 120.859 28.1814 115.765 28.1814C110.67 28.1814 106.937 30.7288 104.565 35.8235C102.281 40.8303 101.139 48.9115 101.139 60.0671C101.139 71.2227 102.281 79.3479 104.565 84.4425C106.937 89.5372 110.67 92.0846 115.765 92.0846Z" fill="#41AB8A"/>
<path d="M65.7477 73.9018C72.16 73.9018 75.3662 76.4931 75.3662 81.6756C75.3662 86.946 72.16 89.5811 65.7477 89.5811H60.8727V97.0914C60.8727 100.429 59.9503 102.977 58.1057 104.733C56.2611 106.49 53.8455 107.369 50.859 107.369C47.8724 107.369 45.4569 106.49 43.6122 104.733C41.7676 102.977 40.8453 100.429 40.8453 97.0914V89.5811H8.82785C6.10483 89.5811 3.95277 88.7906 2.37166 87.2095C0.790554 85.5405 0 83.4763 0 81.0168C0 78.5573 0.834474 76.0978 2.50342 73.6383L41.7676 17.509C42.8217 16.0157 44.1393 14.9177 45.7204 14.215C47.3015 13.4244 48.9704 13.0292 50.7272 13.0292C53.4502 13.0292 55.8219 13.9515 57.8422 15.7961C59.8625 17.5529 60.8727 20.0124 60.8727 23.1746V73.9018H65.7477ZM20.6862 73.9018H40.8453V44.9148L20.6862 73.9018Z" fill="#165B64"/>
<path d="M217.063 89.5341C221.597 94.0683 222.032 98.1677 218.367 101.832C214.64 105.559 210.51 105.155 205.976 100.621L202.529 97.1739L197.218 102.484C194.858 104.845 192.404 105.994 189.858 105.932C187.311 105.87 184.982 104.783 182.87 102.671C180.758 100.559 179.671 98.2298 179.609 95.6832C179.547 93.1366 180.696 90.6832 183.056 88.323L188.367 83.0124L165.727 60.3727C163.802 58.4472 162.839 56.3665 162.839 54.1304C162.901 51.8323 163.802 49.8137 165.541 48.0745C167.28 46.3354 169.609 45.1863 172.529 44.6273L239.982 32.7019C241.783 32.3913 243.491 32.5466 245.106 33.1677C246.783 33.7267 248.243 34.6273 249.485 35.8696C251.411 37.795 252.435 40.1242 252.56 42.8571C252.746 45.5279 251.721 47.9814 249.485 50.2174L213.615 86.0869L217.063 89.5341ZM185.199 57.6708L199.454 71.9255L219.951 51.4286L185.199 57.6708Z" fill="#165B64"/>
</svg>
