<svg width="510" height="323" viewBox="0 0 510 323" fill="none" xmlns="http://www.w3.org/2000/svg">
<g opacity="0.1">
<path d="M606.33 25.4316L529.595 -73.6203L452.774 25.4317L606.33 25.4316Z" fill="#41AB8A"/>
<path d="M376.038 -73.6203L452.773 25.4316L529.594 -73.6204L376.038 -73.6203Z" fill="#165B64"/>
<path d="M452.773 223.622L529.594 124.57L376.038 124.57L452.773 223.622Z" fill="#4FBBA1"/>
<path d="M529.595 322.759L606.33 223.621L452.773 223.621L529.595 322.759Z" fill="#4FBBA1"/>
<path d="M683.151 124.569L606.33 25.4315L452.773 25.4315L529.594 124.569L683.151 124.569Z" fill="#4FBBA1"/>
<path d="M376.038 124.57L375.952 124.57L299.217 223.622L452.774 223.622L376.038 124.57Z" fill="#162E41"/>
<path d="M214.413 40.6242L241.107 75.0435L267.716 40.6242L214.413 40.6242Z" fill="#165B64"/>
<path d="M303.937 244.651L345.91 298.726L387.797 244.651L303.937 244.651Z" fill="#165B64"/>
<path d="M299.217 25.4317L452.774 25.4316L376.038 -73.6203L375.952 -73.6203L299.217 25.4317Z" fill="#3596B3"/>
<path d="M529.594 124.569L452.773 25.4315L376.038 124.569L529.594 124.569Z" fill="#165B64"/>
<path d="M376.038 124.569L452.774 25.4315L299.217 25.4315L376.038 124.569Z" fill="#4FBBA1"/>
<path d="M376.038 124.57L299.217 223.622L452.774 223.622L376.038 124.57Z" fill="#3596B3"/>
<path d="M529.937 -73.7922L453.202 25.2598L606.673 25.2598L606.759 25.2598L529.937 -73.7922Z" fill="#3596B3"/>
<path d="M275.613 36.4185L321.705 -23.0642L321.619 -23.0642L229.52 -23.0642L275.613 36.4185Z" fill="#4FBBA1"/>
</g>
</svg>
