<svg width="110" height="114" viewBox="0 0 110 114" fill="none" xmlns="http://www.w3.org/2000/svg">
<path d="M109.79 73.8677L59.3638 73.8677L84.559 41.3358L84.5948 41.3358L109.79 73.8677Z" fill="#165B64"/>
<path d="M-19.9692 3.8147e-05L44.0567 4.4664e-05L12.0616 41.3359L12.0258 41.3359L-19.9692 3.8147e-05Z" fill="#3596B3"/>
<path d="M21.0087 52.8596L12.0615 41.3356L76.0874 41.3356L44.0566 82.6357L21.0087 52.8596Z" fill="#3596B3"/>
<path d="M12.0612 123.972L44.0563 82.6358L-19.9696 82.6358L12.0612 123.972Z" fill="#165B64"/>
<path d="M52.3071 82.6358L84.3379 123.972L20.312 123.972L52.3071 82.6358Z" fill="#3596B3"/>
<path d="M-19.9698 4.14037e-05L12.0611 41.3002L12.0611 41.3359L-51.9648 41.3359L-19.9698 4.14037e-05Z" fill="#165B64"/>
<path d="M35.1453 71.1118L44.0567 82.6357L-19.9692 82.6357L12.0616 41.3356L35.1453 71.1118Z" fill="#41AB8A"/>
</svg>
