<svg width="192" height="207" viewBox="0 0 192 207" fill="none" xmlns="http://www.w3.org/2000/svg">
<path d="M192.077 82.6362L160.082 41.3361L128.051 82.6362L192.077 82.6362Z" fill="#41AB8A"/>
<path d="M96.0561 41.3361L128.051 82.6362L160.082 41.3361L96.0561 41.3361Z" fill="#165B64"/>
<path d="M160.082 41.3359L128.051 4.14073e-05L96.0203 41.3359L96.0561 41.3359L160.082 41.3359Z" fill="#4FBBA1"/>
<path d="M128.051 165.272L160.082 123.972L96.0561 123.972L128.051 165.272Z" fill="#4FBBA1"/>
<path d="M160.082 206.608L192.077 165.272L128.051 165.272L160.082 206.608Z" fill="#4FBBA1"/>
<path d="M160.082 41.3359L224.108 41.3359L192.077 4.14073e-05L128.051 4.79243e-05L160.082 41.3359Z" fill="#165B64"/>
<path d="M160.082 41.3361L192.077 82.6362L224.108 41.3361L160.082 41.3361Z" fill="#4FBBA1"/>
<path d="M224.108 123.972L192.077 82.6358L128.051 82.6358L160.082 123.972L224.108 123.972Z" fill="#4FBBA1"/>
<path d="M192.077 165.272L224.108 123.972L160.082 123.972L192.077 165.272Z" fill="#3596B3"/>
<path d="M96.0562 123.972L96.0204 123.972L64.0254 165.272L128.051 165.272L96.0562 123.972Z" fill="#162E41"/>
<path d="M31.9946 41.3359L-0.000492489 4.4664e-05L64.0254 3.8147e-05L31.9946 41.3359Z" fill="#165B64"/>
<path d="M64.0255 4.14037e-05L31.9946 41.3359L96.0205 41.3359L64.0255 4.14037e-05Z" fill="#3596B3"/>
<path d="M28.6659 88.9705L39.7962 103.322L50.8907 88.9705L28.6659 88.9705Z" fill="#165B64"/>
<path d="M65.9935 174.04L83.4942 196.587L100.959 174.04L65.9935 174.04Z" fill="#165B64"/>
<path d="M64.0254 82.6357L128.051 82.6357L96.0562 41.3356L96.0204 41.3356L64.0254 82.6357Z" fill="#3596B3"/>
<path d="M160.082 123.972L128.051 82.6358L96.0561 123.972L160.082 123.972Z" fill="#165B64"/>
<path d="M96.0557 123.972L128.051 82.6363L64.0249 82.6363L96.0557 123.972Z" fill="#4FBBA1"/>
<path d="M96.0562 123.972L64.0254 165.272L128.051 165.272L96.0562 123.972Z" fill="#3596B3"/>
<path d="M160.225 41.2644L128.23 82.5645L192.22 82.5645L192.256 82.5645L160.225 41.2644Z" fill="#3596B3"/>
<path d="M54.1834 87.2168L73.4019 62.4153L73.3661 62.4153L34.9649 62.4153L54.1834 87.2168Z" fill="#4FBBA1"/>
</svg>
