<svg width="453" height="353" viewBox="0 0 453 353" fill="none" xmlns="http://www.w3.org/2000/svg">
<g opacity="0.1">
<path d="M76.1116 396.38L-0.623634 297.328L-77.4447 396.38L76.1116 396.38Z" fill="#165B64"/>
<path d="M-0.623589 99.1377L-77.4447 198.19L76.1117 198.19L-0.623589 99.1377Z" fill="#4FBBA1"/>
<path d="M76.1114 198.19L76.1973 198.19L152.933 99.1377L-0.623795 99.1377L76.1114 198.19Z" fill="#162E41"/>
<path d="M237.737 282.135L211.043 247.716L184.434 282.135L237.737 282.135Z" fill="#165B64"/>
<path d="M148.212 78.1084L106.24 24.0332L64.3529 78.1084L148.212 78.1084Z" fill="#165B64"/>
<path d="M152.933 297.328L-0.62384 297.328L76.1114 396.38L76.1972 396.38L152.933 297.328Z" fill="#3596B3"/>
<path d="M-77.4447 198.19L-0.623621 297.328L76.1117 198.19L-77.4447 198.19Z" fill="#165B64"/>
<path d="M76.1115 198.19L-0.623736 297.328L152.933 297.328L76.1115 198.19Z" fill="#4FBBA1"/>
<path d="M76.1114 198.19L152.933 99.1377L-0.623795 99.1377L76.1114 198.19Z" fill="#3596B3"/>
<path d="M176.537 286.341L130.444 345.824L130.53 345.824L222.63 345.824L176.537 286.341Z" fill="#4FBBA1"/>
</g>
</svg>
